<svg width="640" height="93" viewBox="0 0 640 93" fill="none" xmlns="http://www.w3.org/2000/svg">
<path d="M56.8697 38.2108C41.5671 54.049 53.575 67.0008 83.672 67.4546L80.8039 72.61C42.393 72.2015 26.1556 57.3981 44.4987 39.3363C57.8953 26.1212 88.6549 12.2617 115.993 8.38617L113.606 12.7519C91.1146 16.9905 68.0971 26.6114 56.8697 38.2108Z" fill="white"/>
<path d="M40.6232 39.2007C20.9005 58.6149 38.1454 74.6164 79.3971 75.0702L75.3309 82.3312C73.8515 82.3312 72.4084 82.3312 70.9289 82.3312C23.8956 82.3494 5.92458 61.5374 27.8347 38.9103C45.352 20.7577 85.0153 5.63657 118.543 3.73962L116.655 7.19769C86.4766 10.8917 55.0182 25.0144 40.6232 39.2007Z" fill="white"/>
<path d="M11.0254 39.1188C31.9462 17.8531 78.8706 1.56112 120.64 0L119.16 2.50505C83.0639 4.32031 42.8105 19.5776 24.3857 38.6287C1.35916 62.3995 19.9928 84.7725 69.4494 84.7725C71.0105 84.7725 72.4537 84.7725 73.9876 84.6908L69.6673 92.3421C64.0763 92.7143 45.488 93.749 27.7711 88.2669C-1.50894 79.1906 -8.53398 58.9051 10.9982 39.1188" fill="white"/>
<path d="M91.5322 72.3928C88.8093 72.5198 85.8504 72.6015 83.8355 72.6469L86.5584 67.5007C88.528 67.5007 91.3234 67.419 93.4655 67.3373L91.5322 72.3928Z" fill="white"/>
<path d="M84.5795 91.108C81.1215 91.4438 76.8465 91.8069 73.933 92.061L77.7179 84.6094C80.2592 84.4914 84.0713 84.2826 87.1663 84.0739L84.5795 91.108Z" fill="white"/>
<path d="M88.0652 81.8587C85.6056 82.022 82.5196 82.1854 78.989 82.3125L82.6195 75.1513C85.6237 75.1513 88.4192 74.9879 90.6792 74.8608L88.0652 81.8587Z" fill="white"/>
<path d="M249.85 90.2277H229.565C221.995 90.2277 216.858 88.3036 213.835 84.5732C210.813 80.8429 210.105 75.2065 211.666 67.6459L220.797 24.6334C222.712 15.6298 225.716 9.62125 229.565 6.48086C233.413 3.34047 240.011 1.94272 248.888 1.94272H266.423L264.263 11.9266H251.556C247.59 11.9266 244.831 12.7707 242.907 14.4498C240.983 16.129 239.784 19.1332 238.94 23.3446L237.261 31.0322H258.391L255.877 42.8314H234.729L229.919 65.6492C228.838 70.9406 228.838 74.6619 230.164 76.9491C231.489 79.2364 234.366 80.3074 238.686 80.3074H252.019L249.85 90.2277Z" fill="white"/>
<path d="M310.488 90.2271H292.717L307.611 20.3397C308.083 17.6895 307.847 15.8016 306.767 14.4492C305.687 13.0969 303.527 12.4071 300.523 12.4071H297.4L280.827 90.2271H263.065L281.789 1.93304H311.342C316.987 1.93304 321.062 3.49416 323.468 6.61641C325.873 9.73865 326.708 14.068 325.51 19.7135L310.488 90.2271Z" fill="white"/>
<path d="M387.7 11.8988H370.891L354.317 90.2271H336.546L353.119 11.8988H336.664L338.706 1.93304H389.742L387.7 11.8988Z" fill="white"/>
<path d="M428.425 90.2271H410.509L420.602 42.7671H406.552L396.468 90.2271H378.697L392.502 25.1138C394.181 17.3081 397.566 11.2996 402.585 7.26069C407.604 3.22174 414.384 1.0162 422.553 1.0162C431.2 1.0162 437.084 2.93735 440.206 6.77965C443.329 10.746 443.928 16.7636 442.249 25.1591L428.425 90.2271ZM423.143 30.9952L425.185 21.3925C426.02 17.762 426.02 15.148 425.185 13.5869C424.35 12.0257 422.898 11.2996 420.384 11.2996C417.616 11.2996 415.573 12.1437 414.257 13.5869C412.941 15.03 411.852 17.6621 411.135 21.3925L409.093 30.9952H423.143Z" fill="white"/>
<path d="M499.729 65.8392C497.914 74.6069 494.447 81.0964 489.645 85.2988C484.844 89.5011 478.118 91.6522 469.95 91.6522C462.026 91.6522 456.508 89.492 453.14 85.0537C449.773 80.6154 449.174 74.3528 450.98 65.8301L464.549 1.93304H482.321L468.87 65.4671C467.789 70.2775 467.554 73.6357 468.035 75.6779C468.516 77.7201 470.068 78.6822 472.709 78.6822C473.816 78.7244 474.915 78.482 475.902 77.9783C476.889 77.4746 477.73 76.7263 478.345 75.805C479.788 73.9897 480.986 70.5226 482.066 65.4761L495.518 1.94212H513.289L499.729 65.8392Z" fill="white"/>
<path d="M636.5 46.2894C632.651 64.1879 627.968 76.2412 622.332 82.4403C619.62 85.4196 616.303 87.7845 612.602 89.3766C608.901 90.9686 604.903 91.7508 600.875 91.6709C592.226 91.6709 586.353 88.5396 583.222 82.4131C580.091 76.2866 580.499 64.1606 584.302 46.2622C588.141 28.1096 592.943 16.1017 598.47 9.95706C601.237 7.02108 604.592 4.70104 608.315 3.14814C612.039 1.59524 616.048 0.844316 620.081 0.944308C628.848 0.944308 634.848 3.66719 637.97 9.11297C641.092 14.5587 640.611 27.0114 636.536 46.235L636.5 46.2894ZM618.12 46.2894C619.962 38.208 621.325 30.0252 622.205 21.7835C622.813 16.1289 621.125 13.2518 617.403 13.2518C613.682 13.2518 610.923 16.1289 608.881 21.9015C606.324 29.9018 604.239 38.0451 602.636 46.2894C600.113 58.0886 598.67 66.5931 598.434 71.7484C598.198 76.9038 599.877 79.318 603.471 79.318C607.065 79.318 609.961 76.5952 611.885 70.7863C613.8 65.15 615.842 56.9722 618.12 46.2804" fill="white"/>
<path d="M197.498 90.2277H177.085C169.643 90.2277 164.379 88.3036 161.356 84.5732C158.334 80.8429 157.635 75.2065 159.314 67.6459L168.436 24.6334C170.36 15.6298 173.246 9.62125 177.203 6.48086C181.161 3.34047 187.532 1.94272 196.536 1.94272H213.953L211.784 11.9266H199.077C195.238 11.9266 192.352 12.7707 190.555 14.4498C188.757 16.129 187.314 19.1332 186.47 23.3446L184.791 31.0322L182.386 42.8314L177.467 65.6492C176.386 70.9406 176.504 74.6619 177.703 76.9491C178.901 79.2364 181.905 80.3074 186.352 80.3074H199.558L197.498 90.2277Z" fill="white"/>
<path d="M557.246 25.5949C558.444 20.1492 558.571 16.4642 557.845 14.5491C557.119 12.634 555.203 11.6628 552.081 11.6628H547.398L541.634 38.8917H546.799C548.04 38.9297 549.272 38.6779 550.399 38.1564C551.525 37.6349 552.515 36.8581 553.288 35.8874C554.84 33.9633 556.166 30.487 557.246 25.5586V25.5949ZM552.326 56.2728C552.807 53.9946 552.444 52.3064 551.482 51.2264C550.52 50.1463 548.959 49.4111 546.799 49.4111H539.356L530.707 90.2544H512.935L531.669 1.93304H558.807C566.249 1.93304 571.296 3.61216 573.937 7.09745C576.578 10.5827 577.295 15.6292 575.752 22.5907C574.672 27.8822 572.757 32.2025 569.871 35.4427C567.026 38.7433 563.268 41.1277 559.07 42.2953C563.145 42.7763 566.149 44.3375 567.947 46.9787C569.744 49.6199 570.116 52.8692 569.272 56.7084L562.065 90.2272H545.12L552.326 56.2728Z" fill="white"/>
</svg>
