<?xml version="1.0" encoding="UTF-8"?><svg xmlns="http://www.w3.org/2000/svg" xmlns:xlink="http://www.w3.org/1999/xlink" height="119.0" preserveAspectRatio="xMidYMid meet" version="1.0" viewBox="-2.7 0.0 124.3 119.0" width="124.3" zoomAndPan="magnify"><g><g><g><g id="change1_1"><path d="M59.5,0h0C38.24,0,18.6,11.34,7.97,29.75h0c-10.63,18.41-10.63,41.09,0,59.5h0c10.63,18.41,30.27,29.75,51.52,29.75h0c21.26,0,40.9-11.34,51.52-29.75h0c10.63-18.41,10.63-41.09,0-59.5h0C100.39,11.34,80.75,0,59.5,0Z" fill="#009b0b"/></g><g id="change2_1"><path d="M50.14,59.92l-6.18-6.18c-4.53-4.53-11.87-4.53-16.4,0h0c-4.53,4.53-4.53,11.87,0,16.4l6.18,6.18,7.25,7.25c5.06,5.06,13.25,5.06,18.31,0l7.25-7.25,24.89-24.89c4.53-4.53,4.53-11.87,0-16.4h0c-4.53-4.53-11.87-4.53-16.4,0l-24.89,24.89Z" fill="#fff"/></g></g></g></g></svg>