<?xml version="1.0" encoding="UTF-8" standalone="no"?><svg xmlns="http://www.w3.org/2000/svg" xmlns:xlink="http://www.w3.org/1999/xlink" fill="#000000" height="722.5" preserveAspectRatio="xMidYMid meet" version="1" viewBox="0.0 0.0 1593.7 722.5" width="1593.7" zoomAndPan="magnify"><defs><clipPath id="a"><path d="M 0 516 L 207 516 L 207 722.511719 L 0 722.511719 Z M 0 516"/></clipPath><clipPath id="b"><path d="M 0 0 L 1593.730469 0 L 1593.730469 544 L 0 544 Z M 0 0"/></clipPath></defs><g><g clip-path="url(#a)" id="change1_1"><path d="M 0 516.261719 L 206.25 722.511719 L 206.25 516.261719 Z M 0 516.261719" fill="#191616"/></g><g clip-path="url(#b)" id="change2_1"><path d="M 30.992188 543.984375 L 1367 543.984375 C 1492.21875 543.984375 1593.730469 442.472656 1593.730469 317.25 L 1593.730469 226.734375 C 1593.730469 101.515625 1492.21875 0.00390625 1367 0.00390625 L 182.570312 0.00390625 C 81.738281 0.00390625 0 81.742188 0 182.574219 L 0 512.988281 C 0 530.105469 13.875 543.984375 30.992188 543.984375" fill="#191616"/></g></g></svg>